<?xml version="1.0" encoding="UTF-8"?>
<!-- Generated by Pixelmator Pro 3.3.12 -->
<svg width="512" height="512" viewBox="0 0 512 512" xmlns="http://www.w3.org/2000/svg">
    <path id="bandcamp" fill="#ffffff" fill-rule="evenodd" stroke="none" d="M 256 512 C 114.61554 512 0 397.38446 0 256 C 0 114.61557 114.61554 0 256 0 C 397.38443 0 512 114.61557 512 256 C 512 397.38446 397.38443 512 256 512 Z M 37 327 L 200 327 L 275 184 L 113 184 L 37 327 Z M 334.625 326.744141 C 342.07312 326.744141 348.54126 325.273987 354.029297 322.333984 C 359.517334 319.393951 364.05896 315.474243 367.652344 310.574219 C 371.245728 305.674194 373.923462 300.021851 375.6875 293.619141 C 377.451538 287.216461 378.333984 280.618958 378.333984 273.824219 C 378.333984 266.376221 377.354492 259.384949 375.394531 252.851563 C 373.434448 246.318176 370.494263 240.601196 366.574219 235.701172 C 362.654175 230.801147 357.720703 226.947998 351.775391 224.138672 C 345.830078 221.329346 338.873047 219.923828 330.902344 219.923828 C 328.02771 219.923828 325.119629 220.283264 322.179688 221.001953 C 319.239624 221.720581 316.430603 222.766663 313.751953 224.138672 C 311.073242 225.510681 308.623718 227.176697 306.402344 229.136719 C 304.18103 231.096741 302.286743 233.318115 300.71875 235.800781 L 300.326172 235.800781 L 300.326172 184.056641 L 277.982422 184.056641 L 277.982422 324 L 299.150391 324 L 299.150391 310.083984 L 299.542969 310.083984 C 301.241638 313.481323 303.364136 316.225708 305.912109 318.316406 C 308.460144 320.407074 311.301514 322.105438 314.4375 323.412109 C 317.573547 324.718781 320.873169 325.601257 324.335938 326.058594 C 327.798584 326.51593 331.227661 326.744141 334.625 326.744141 Z M 432.445313 326.744141 C 445.511963 326.744141 455.998901 323.248505 463.904297 316.257813 C 471.80957 309.26712 476.807861 299.17392 478.898438 285.976563 L 456.554688 285.976563 C 455.509399 293.293915 452.861938 298.976654 448.615234 303.027344 C 444.36853 307.078003 438.978638 309.103516 432.445313 309.103516 C 427.610596 309.103516 423.494995 308.091736 420.097656 306.066406 C 416.700317 304.041046 413.923584 301.395599 411.767578 298.128906 C 409.611572 294.862244 408.044434 291.136444 407.064453 286.955078 C 406.084473 282.773743 405.59375 278.593506 405.59375 274.412109 C 405.59375 266.702789 406.508545 260.462769 408.337891 255.693359 C 410.167236 250.924011 412.453247 247.200195 415.197266 244.521484 C 417.941284 241.842834 420.94812 240.013184 424.214844 239.033203 C 427.481567 238.053223 430.551025 237.564453 433.425781 237.564453 C 439.697754 237.564453 444.891724 239.163879 449.007813 242.365234 C 453.123779 245.566528 455.640015 250.304138 456.554688 256.576172 L 478.898438 256.576172 C 478.375854 250.304138 476.806763 244.881958 474.193359 240.308594 C 471.580078 235.735229 468.215698 231.944824 464.099609 228.939453 C 459.983643 225.934082 455.280273 223.68042 449.988281 222.177734 C 444.696167 220.67511 439.110474 219.923828 433.230469 219.923828 C 424.867798 219.923828 417.581665 221.329346 411.375 224.138672 C 405.168335 226.947998 399.974365 230.801147 395.792969 235.701172 C 391.611694 240.601196 388.477417 246.384827 386.386719 253.048828 C 384.296021 259.712891 383.25 266.833435 383.25 274.412109 C 383.25 281.860168 384.328369 288.784821 386.484375 295.1875 C 388.640381 301.59021 391.808838 307.111298 395.990234 311.75 C 400.171631 316.388702 405.29895 320.047882 411.375 322.726563 C 417.45105 325.405243 424.474609 326.744141 432.445313 326.744141 Z M 327.962891 309.103516 C 323.389526 309.103516 319.37085 308.188721 315.908203 306.359375 C 312.445496 304.53006 309.4729 302.048126 306.990234 298.912109 C 304.507568 295.776093 302.64563 292.019928 301.404297 287.642578 C 300.162964 283.265228 299.542969 278.527649 299.542969 273.431641 C 299.542969 262.586243 301.925964 253.896606 306.695313 247.363281 C 311.464661 240.829895 318.55481 237.564453 327.962891 237.564453 C 332.536255 237.564453 336.585205 238.576233 340.113281 240.601563 C 343.641235 242.626892 346.581665 245.306641 348.933594 248.638672 C 351.285645 251.970703 353.050659 255.791504 354.226563 260.103516 C 355.402588 264.415527 355.990234 268.858276 355.990234 273.431641 C 355.990234 277.874329 355.499512 282.220093 354.519531 286.466797 C 353.539551 290.71347 351.905884 294.501953 349.619141 297.833984 C 347.33252 301.165985 344.426514 303.878082 340.898438 305.96875 C 337.370483 308.059448 333.058838 309.103516 327.962891 309.103516 Z"/>
</svg>
